<svg xmlns="http://www.w3.org/2000/svg" width="1320" height="850" viewBox="0 0 1320 850"><rect width="100%" height="100%" fill="#F7FAFC"/><text x="42" y="52" fill="#003087" font-family="Arial, sans-serif" font-size="28" font-weight="700" text-anchor="start">Issue #269 · Native preset ColorPicker</text><text x="42" y="80" fill="#425563" font-family="Arial, sans-serif" font-size="15" font-weight="400" text-anchor="start">Three sheet layouts using the web picker’s 16 preset entries</text><rect x="54" y="108" width="360" height="50" rx="12" fill="#E8F3FB" opacity="1"/><circle cx="78" cy="133" r="15" fill="#005EB8"/><text x="78" y="138" fill="white" font-family="Arial, sans-serif" font-size="14" font-weight="700" text-anchor="middle">A</text><text x="102" y="132" fill="#003087" font-family="Arial, sans-serif" font-size="18" font-weight="700" text-anchor="start">Quick grid</text><text x="102" y="150" fill="#425563" font-family="Arial, sans-serif" font-size="12" font-weight="400" text-anchor="start">Fast scanning, smallest sheet</text><rect x="74" y="180" width="320" height="610" rx="33" fill="#FFFFFF" opacity="1" stroke="#CFD9E1" stroke-width="2"/><text x="234" y="208" fill="#231F20" font-family="Arial, sans-serif" font-size="13" font-weight="600" text-anchor="middle">9:41</text><text x="353" y="208" fill="#231F20" font-family="Arial, sans-serif" font-size="12" font-weight="600" text-anchor="middle">●  ▰</text><text x="98" y="246" fill="#231F20" font-family="Arial, sans-serif" font-size="31" font-weight="400" text-anchor="start">‹</text><text x="234" y="245" fill="#231F20" font-family="Arial, sans-serif" font-size="17" font-weight="700" text-anchor="middle">New category</text><text x="97" y="288" fill="#425563" font-family="Arial, sans-serif" font-size="13" font-weight="600" text-anchor="start">Name</text><rect x="96" y="301" width="276" height="49" rx="10" fill="#F7FAFC" opacity="1" stroke="#E5E7EB" stroke-width="1"/><text x="110" y="332" fill="#231F20" font-family="Arial, sans-serif" font-size="16" font-weight="400" text-anchor="start">Holiday gifts</text><text x="97" y="386" fill="#425563" font-family="Arial, sans-serif" font-size="13" font-weight="600" text-anchor="start">Colour</text><rect x="96" y="399" width="276" height="55" rx="10" fill="#FFFFFF" opacity="1" stroke="#E5E7EB" stroke-width="1"/><circle cx="122" cy="426" r="12" fill="#4c6ef5"/><text x="145" y="432" fill="#231F20" font-family="Arial, sans-serif" font-size="15" font-weight="600" text-anchor="start">#4C6EF5</text><text x="352" y="432" fill="#768692" font-family="Arial, sans-serif" font-size="19" font-weight="500" text-anchor="middle">⌄</text><rect x="74" y="218" width="320" height="572" rx="32" fill="#142A38" opacity="0.48"/><rect x="74" y="462" width="320" height="328" rx="26" fill="#FFFFFF" opacity="1"/><rect x="204" y="472" width="60" height="4" rx="2" fill="#D8E1E7" opacity="1"/><text x="96" y="506" fill="#231F20" font-family="Arial, sans-serif" font-size="19" font-weight="700" text-anchor="start">Choose a colour</text><text x="365" y="506" fill="#425563" font-family="Arial, sans-serif" font-size="25" font-weight="400" text-anchor="middle">×</text><line x1="96" y1="522" x2="372" y2="522" stroke="#E5E7EB" stroke-width="1"/><circle cx="118" cy="567" r="21" fill="#25262b"/><circle cx="164" cy="567" r="21" fill="#868e96"/><circle cx="210" cy="567" r="21" fill="#fa5252"/><circle cx="256" cy="567" r="21" fill="#e64980"/><circle cx="302" cy="567" r="21" fill="#be4bdb"/><circle cx="348" cy="567" r="21" fill="#7950f2"/><circle cx="118" cy="631" r="21" fill="#4c6ef5"/><circle cx="118" cy="631" r="24" fill="none" stroke="#005EB8" stroke-width="2"/><text x="118" y="637" fill="white" font-family="Arial, sans-serif" font-size="18" font-weight="700" text-anchor="middle">✓</text><circle cx="164" cy="631" r="21" fill="#228be6"/><circle cx="210" cy="631" r="21" fill="#15aabf"/><circle cx="256" cy="631" r="21" fill="#12b886"/><circle cx="302" cy="631" r="21" fill="#40c057"/><circle cx="348" cy="631" r="21" fill="#82c91e"/><circle cx="118" cy="695" r="21" fill="#fab005"/><circle cx="164" cy="695" r="21" fill="#fd7e14"/><circle cx="210" cy="695" r="21" fill="#fd7e14"/><circle cx="256" cy="695" r="21" fill="#fd7e14"/><text x="96" y="755" fill="#768692" font-family="Arial, sans-serif" font-size="13" font-weight="400" text-anchor="start">Tap a colour to apply it</text><rect x="186" y="781" width="144" height="4" rx="2" fill="#231F20" opacity="1"/><rect x="480" y="108" width="360" height="50" rx="12" fill="#E8F3FB" opacity="1"/><circle cx="504" cy="133" r="15" fill="#005EB8"/><text x="504" y="138" fill="white" font-family="Arial, sans-serif" font-size="14" font-weight="700" text-anchor="middle">B</text><text x="528" y="132" fill="#003087" font-family="Arial, sans-serif" font-size="18" font-weight="700" text-anchor="start">Preview + grid</text><text x="528" y="150" fill="#425563" font-family="Arial, sans-serif" font-size="12" font-weight="400" text-anchor="start">More context for the selected color</text><rect x="500" y="180" width="320" height="610" rx="33" fill="#FFFFFF" opacity="1" stroke="#CFD9E1" stroke-width="2"/><text x="660" y="208" fill="#231F20" font-family="Arial, sans-serif" font-size="13" font-weight="600" text-anchor="middle">9:41</text><text x="779" y="208" fill="#231F20" font-family="Arial, sans-serif" font-size="12" font-weight="600" text-anchor="middle">●  ▰</text><text x="524" y="246" fill="#231F20" font-family="Arial, sans-serif" font-size="31" font-weight="400" text-anchor="start">‹</text><text x="660" y="245" fill="#231F20" font-family="Arial, sans-serif" font-size="17" font-weight="700" text-anchor="middle">New category</text><text x="523" y="288" fill="#425563" font-family="Arial, sans-serif" font-size="13" font-weight="600" text-anchor="start">Name</text><rect x="522" y="301" width="276" height="49" rx="10" fill="#F7FAFC" opacity="1" stroke="#E5E7EB" stroke-width="1"/><text x="536" y="332" fill="#231F20" font-family="Arial, sans-serif" font-size="16" font-weight="400" text-anchor="start">Holiday gifts</text><text x="523" y="386" fill="#425563" font-family="Arial, sans-serif" font-size="13" font-weight="600" text-anchor="start">Colour</text><rect x="522" y="399" width="276" height="55" rx="10" fill="#FFFFFF" opacity="1" stroke="#E5E7EB" stroke-width="1"/><circle cx="548" cy="426" r="12" fill="#4c6ef5"/><text x="571" y="432" fill="#231F20" font-family="Arial, sans-serif" font-size="15" font-weight="600" text-anchor="start">#4C6EF5</text><text x="778" y="432" fill="#768692" font-family="Arial, sans-serif" font-size="19" font-weight="500" text-anchor="middle">⌄</text><rect x="500" y="218" width="320" height="572" rx="32" fill="#142A38" opacity="0.48"/><rect x="500" y="409" width="320" height="381" rx="26" fill="#FFFFFF" opacity="1"/><rect x="630" y="419" width="60" height="4" rx="2" fill="#D8E1E7" opacity="1"/><text x="522" y="453" fill="#231F20" font-family="Arial, sans-serif" font-size="19" font-weight="700" text-anchor="start">Choose a colour</text><text x="791" y="453" fill="#425563" font-family="Arial, sans-serif" font-size="25" font-weight="400" text-anchor="middle">×</text><line x1="522" y1="469" x2="798" y2="469" stroke="#E5E7EB" stroke-width="1"/><text x="522" y="498" fill="#768692" font-family="Arial, sans-serif" font-size="12" font-weight="600" text-anchor="start">Current selection</text><circle cx="545" cy="529" r="18" fill="#4c6ef5"/><text x="574" y="535" fill="#231F20" font-family="Arial, sans-serif" font-size="18" font-weight="700" text-anchor="start">#4C6EF5</text><line x1="522" y1="558" x2="798" y2="558" stroke="#E5E7EB" stroke-width="1"/><circle cx="549" cy="599" r="17" fill="#25262b"/><circle cx="603" cy="599" r="17" fill="#868e96"/><circle cx="657" cy="599" r="17" fill="#fa5252"/><circle cx="711" cy="599" r="17" fill="#e64980"/><circle cx="765" cy="599" r="17" fill="#be4bdb"/><circle cx="549" cy="647" r="17" fill="#7950f2"/><circle cx="603" cy="647" r="17" fill="#4c6ef5"/><circle cx="603" cy="647" r="21" fill="none" stroke="#005EB8" stroke-width="2"/><text x="603" y="652" fill="white" font-family="Arial, sans-serif" font-size="14" font-weight="700" text-anchor="middle">✓</text><circle cx="657" cy="647" r="17" fill="#228be6"/><circle cx="711" cy="647" r="17" fill="#15aabf"/><circle cx="765" cy="647" r="17" fill="#12b886"/><circle cx="549" cy="695" r="17" fill="#40c057"/><circle cx="603" cy="695" r="17" fill="#82c91e"/><circle cx="657" cy="695" r="17" fill="#fab005"/><circle cx="711" cy="695" r="17" fill="#fd7e14"/><circle cx="765" cy="695" r="17" fill="#fd7e14"/><circle cx="549" cy="743" r="17" fill="#fd7e14"/><rect x="612" y="781" width="144" height="4" rx="2" fill="#231F20" opacity="1"/><rect x="906" y="108" width="360" height="50" rx="12" fill="#E8F3FB" opacity="1"/><circle cx="930" cy="133" r="15" fill="#005EB8"/><text x="930" y="138" fill="white" font-family="Arial, sans-serif" font-size="14" font-weight="700" text-anchor="middle">C</text><text x="954" y="132" fill="#003087" font-family="Arial, sans-serif" font-size="18" font-weight="700" text-anchor="start">Hex list</text><text x="954" y="150" fill="#425563" font-family="Arial, sans-serif" font-size="12" font-weight="400" text-anchor="start">Color values visible; scroll for all colors</text><rect x="926" y="180" width="320" height="610" rx="33" fill="#FFFFFF" opacity="1" stroke="#CFD9E1" stroke-width="2"/><text x="1086" y="208" fill="#231F20" font-family="Arial, sans-serif" font-size="13" font-weight="600" text-anchor="middle">9:41</text><text x="1205" y="208" fill="#231F20" font-family="Arial, sans-serif" font-size="12" font-weight="600" text-anchor="middle">●  ▰</text><text x="950" y="246" fill="#231F20" font-family="Arial, sans-serif" font-size="31" font-weight="400" text-anchor="start">‹</text><text x="1086" y="245" fill="#231F20" font-family="Arial, sans-serif" font-size="17" font-weight="700" text-anchor="middle">New category</text><text x="949" y="288" fill="#425563" font-family="Arial, sans-serif" font-size="13" font-weight="600" text-anchor="start">Name</text><rect x="948" y="301" width="276" height="49" rx="10" fill="#F7FAFC" opacity="1" stroke="#E5E7EB" stroke-width="1"/><text x="962" y="332" fill="#231F20" font-family="Arial, sans-serif" font-size="16" font-weight="400" text-anchor="start">Holiday gifts</text><text x="949" y="386" fill="#425563" font-family="Arial, sans-serif" font-size="13" font-weight="600" text-anchor="start">Colour</text><rect x="948" y="399" width="276" height="55" rx="10" fill="#FFFFFF" opacity="1" stroke="#E5E7EB" stroke-width="1"/><circle cx="974" cy="426" r="12" fill="#4c6ef5"/><text x="997" y="432" fill="#231F20" font-family="Arial, sans-serif" font-size="15" font-weight="600" text-anchor="start">#4C6EF5</text><text x="1204" y="432" fill="#768692" font-family="Arial, sans-serif" font-size="19" font-weight="500" text-anchor="middle">⌄</text><rect x="926" y="218" width="320" height="572" rx="32" fill="#142A38" opacity="0.48"/><rect x="926" y="342" width="320" height="448" rx="26" fill="#FFFFFF" opacity="1"/><rect x="1056" y="352" width="60" height="4" rx="2" fill="#D8E1E7" opacity="1"/><text x="948" y="386" fill="#231F20" font-family="Arial, sans-serif" font-size="19" font-weight="700" text-anchor="start">Choose a colour</text><text x="1217" y="386" fill="#425563" font-family="Arial, sans-serif" font-size="25" font-weight="400" text-anchor="middle">×</text><line x1="948" y1="402" x2="1224" y2="402" stroke="#E5E7EB" stroke-width="1"/><circle cx="967" cy="422" r="17" fill="#25262b"/><text x="999" y="427" fill="#231F20" font-family="Arial, sans-serif" font-size="14" font-weight="600" text-anchor="start">#25262B</text><line x1="948" y1="448" x2="1224" y2="448" stroke="#E5E7EB" stroke-width="1"/><circle cx="967" cy="473" r="17" fill="#868e96"/><text x="999" y="478" fill="#231F20" font-family="Arial, sans-serif" font-size="14" font-weight="600" text-anchor="start">#868E96</text><line x1="948" y1="499" x2="1224" y2="499" stroke="#E5E7EB" stroke-width="1"/><circle cx="967" cy="524" r="17" fill="#fa5252"/><text x="999" y="529" fill="#231F20" font-family="Arial, sans-serif" font-size="14" font-weight="600" text-anchor="start">#FA5252</text><line x1="948" y1="550" x2="1224" y2="550" stroke="#E5E7EB" stroke-width="1"/><circle cx="967" cy="575" r="17" fill="#e64980"/><text x="999" y="580" fill="#231F20" font-family="Arial, sans-serif" font-size="14" font-weight="600" text-anchor="start">#E64980</text><line x1="948" y1="601" x2="1224" y2="601" stroke="#E5E7EB" stroke-width="1"/><circle cx="967" cy="626" r="17" fill="#be4bdb"/><text x="999" y="631" fill="#231F20" font-family="Arial, sans-serif" font-size="14" font-weight="600" text-anchor="start">#BE4BDB</text><line x1="948" y1="652" x2="1224" y2="652" stroke="#E5E7EB" stroke-width="1"/><circle cx="967" cy="677" r="17" fill="#7950f2"/><text x="999" y="682" fill="#231F20" font-family="Arial, sans-serif" font-size="14" font-weight="600" text-anchor="start">#7950F2</text><line x1="948" y1="703" x2="1224" y2="703" stroke="#E5E7EB" stroke-width="1"/><circle cx="967" cy="728" r="17" fill="#4c6ef5"/><text x="999" y="733" fill="#231F20" font-family="Arial, sans-serif" font-size="14" font-weight="600" text-anchor="start">#4C6EF5</text><text x="1199" y="734" fill="#005EB8" font-family="Arial, sans-serif" font-size="19" font-weight="700" text-anchor="middle">✓</text><rect x="1228" y="414" width="3" height="165" rx="2" fill="#CFD9E1" opacity="1"/><rect x="1038" y="781" width="144" height="4" rx="2" fill="#231F20" opacity="1"/><text x="54" y="826" fill="#425563" font-family="Arial, sans-serif" font-size="13" font-weight="400" text-anchor="start">All variants: tap swatch → onChange + close; dismiss → onCancel. The source palette repeats #FD7E14 three times.</text></svg>