<svg xmlns="http://www.w3.org/2000/svg" width="1326" height="1020" viewBox="0 0 1326 1020"><defs><filter id="shadow" x="-20%" y="-20%" width="140%" height="150%"><feDropShadow dx="0" dy="2" stdDeviation="3" flood-color="#003087" flood-opacity=".05"/></filter></defs><g font-family="Inter, DejaVu Sans, sans-serif" style="font-variant-numeric:tabular-nums"><rect x="0" y="0" width="1326" height="1020" rx="0" fill="#F0F4F8" stroke="#F0F4F8"/><text x="36" y="46" font-size="28" fill="#231F20" font-weight="700" text-anchor="start">Guallet / Mobile reports</text><text x="36" y="74" font-size="14" fill="#425563" font-weight="400" text-anchor="start">Three design directions · Sample data · September 2026</text><text x="36" y="112" font-size="18" fill="#005EB8" font-weight="600" text-anchor="start">01  Spending first</text><g transform="translate(36,132)"><rect x="0" y="0" width="390" height="844" rx="28" fill="#F7FAFC" stroke="#E5E7EB"/><text x="24" y="29" font-size="14" fill="#231F20" font-weight="600" text-anchor="start">9:41</text><text x="366" y="29" font-size="12" fill="#231F20" font-weight="500" text-anchor="end">▮▮▮  ▰</text><path d="M28 61l-6 6 6 6" stroke="#005EB8" stroke-width="1.5" fill="none"/><text x="38" y="72" font-size="14" fill="#005EB8" font-weight="500" text-anchor="start">Dashboard</text><text x="16" y="116" font-size="32" fill="#231F20" font-weight="700" text-anchor="start">Reports</text><text x="16" y="142" font-size="14" fill="#425563" font-weight="400" text-anchor="start">See where your money goes</text><rect x="16" y="160" width="244" height="44" rx="16" fill="white" stroke="#E5E7EB"/><text x="36" y="187" font-size="16" fill="#231F20" font-weight="600" text-anchor="start">September 2026</text><text x="238" y="187" font-size="18" fill="#005EB8" font-weight="400" text-anchor="start">⌄</text><rect x="268" y="160" width="106" height="44" rx="16" fill="white" stroke="#E5E7EB"/><text x="321" y="187" font-size="14" fill="#005EB8" font-weight="600" text-anchor="middle">Filters</text><text x="18" y="229" font-size="12" fill="#425563" font-weight="400" text-anchor="start">All accounts · GBP</text><rect x="134" y="826" width="122" height="5" rx="3" fill="#231F20" stroke="#231F20"/><rect x="16" y="246" width="358" height="40" rx="12" fill="#E8EDEE" stroke="#E8EDEE"/><rect x="20" y="250" width="116.66666666666667" height="32" rx="9" fill="white" stroke="#E5E7EB"/><text x="78.33333333333334" y="272" font-size="13" fill="#005EB8" font-weight="600" text-anchor="middle">Spending</text><text x="195" y="272" font-size="13" fill="#425563" font-weight="400" text-anchor="middle">Income</text><text x="311.6666666666667" y="272" font-size="13" fill="#425563" font-weight="400" text-anchor="middle">Cash flow</text><g filter="url(#shadow)"><rect x="16" y="302" width="358" height="253" rx="16" fill="white" stroke="#E5E7EB"/></g><circle cx="195" cy="427" r="83" fill="none" stroke="#003087" stroke-width="20" stroke-dasharray="234.89201502811665 286.61236546778906" stroke-dashoffset="0" transform="rotate(-90 195 427)"/><circle cx="195" cy="427" r="83" fill="none" stroke="#005EB8" stroke-width="20" stroke-dasharray="99.30087609918115 422.20350439672455" stroke-dashoffset="-239.89201502811665" transform="rotate(-90 195 427)"/><circle cx="195" cy="427" r="83" fill="none" stroke="#41B6E6" stroke-width="20" stroke-dasharray="62.79556946446775 458.70881103143796" stroke-dashoffset="-344.1928911272978" transform="rotate(-90 195 427)"/><circle cx="195" cy="427" r="83" fill="none" stroke="#00A9CE" stroke-width="20" stroke-dasharray="104.51591990414019 416.9884605917655" stroke-dashoffset="-411.98846059176554" transform="rotate(-90 195 427)"/><text x="195" y="411" font-size="11" fill="#425563" font-weight="600" text-anchor="middle">TOTAL SPENDING</text><text x="195" y="446" font-size="22" fill="#DA291C" font-weight="700" text-anchor="middle">−£2,400.00</text><text x="195" y="471" font-size="12" fill="#425563" font-weight="400" text-anchor="middle">September</text><g filter="url(#shadow)"><rect x="16" y="571" width="358" height="234" rx="16" fill="white" stroke="#E5E7EB"/></g><text x="32" y="600" font-size="18" fill="#231F20" font-weight="600" text-anchor="start">Spending by category</text><rect x="32" y="622" width="8" height="8" rx="4" fill="#003087" stroke="#003087"/><text x="50" y="631" font-size="14" fill="#231F20" font-weight="500" text-anchor="start">Housing</text><text x="340" y="631" font-size="14" fill="#DA291C" font-weight="600" text-anchor="end">−£1,100.00</text><path d="M350 621l5 5-5 5" fill="none" stroke="#425563" stroke-width="1.5"/><text x="50" y="649" font-size="12" fill="#425563" font-weight="400" text-anchor="start">46% of spending</text><rect x="32" y="670" width="8" height="8" rx="4" fill="#005EB8" stroke="#005EB8"/><text x="50" y="679" font-size="14" fill="#231F20" font-weight="500" text-anchor="start">Groceries</text><text x="340" y="679" font-size="14" fill="#DA291C" font-weight="600" text-anchor="end">−£480.00</text><path d="M350 669l5 5-5 5" fill="none" stroke="#425563" stroke-width="1.5"/><text x="50" y="697" font-size="12" fill="#425563" font-weight="400" text-anchor="start">20% of spending</text><rect x="32" y="718" width="8" height="8" rx="4" fill="#41B6E6" stroke="#41B6E6"/><text x="50" y="727" font-size="14" fill="#231F20" font-weight="500" text-anchor="start">Transport</text><text x="340" y="727" font-size="14" fill="#DA291C" font-weight="600" text-anchor="end">−£320.00</text><path d="M350 717l5 5-5 5" fill="none" stroke="#425563" stroke-width="1.5"/><text x="50" y="745" font-size="12" fill="#425563" font-weight="400" text-anchor="start">13% of spending</text><rect x="32" y="766" width="8" height="8" rx="4" fill="#00A9CE" stroke="#00A9CE"/><text x="50" y="775" font-size="14" fill="#231F20" font-weight="500" text-anchor="start">Other</text><text x="340" y="775" font-size="14" fill="#DA291C" font-weight="600" text-anchor="end">−£500.00</text><path d="M350 765l5 5-5 5" fill="none" stroke="#425563" stroke-width="1.5"/><text x="50" y="793" font-size="12" fill="#425563" font-weight="400" text-anchor="start">21% of spending</text></g><text x="468" y="112" font-size="18" fill="#005EB8" font-weight="600" text-anchor="start">02  Cash flow first</text><g transform="translate(468,132)"><rect x="0" y="0" width="390" height="844" rx="28" fill="#F7FAFC" stroke="#E5E7EB"/><text x="24" y="29" font-size="14" fill="#231F20" font-weight="600" text-anchor="start">9:41</text><text x="366" y="29" font-size="12" fill="#231F20" font-weight="500" text-anchor="end">▮▮▮  ▰</text><path d="M28 61l-6 6 6 6" stroke="#005EB8" stroke-width="1.5" fill="none"/><text x="38" y="72" font-size="14" fill="#005EB8" font-weight="500" text-anchor="start">Dashboard</text><text x="16" y="116" font-size="32" fill="#231F20" font-weight="700" text-anchor="start">Reports</text><text x="16" y="142" font-size="14" fill="#425563" font-weight="400" text-anchor="start">Compare money in and money out</text><rect x="16" y="160" width="244" height="44" rx="16" fill="white" stroke="#E5E7EB"/><text x="36" y="187" font-size="16" fill="#231F20" font-weight="600" text-anchor="start">September 2026</text><text x="238" y="187" font-size="18" fill="#005EB8" font-weight="400" text-anchor="start">⌄</text><rect x="268" y="160" width="106" height="44" rx="16" fill="white" stroke="#E5E7EB"/><text x="321" y="187" font-size="14" fill="#005EB8" font-weight="600" text-anchor="middle">Filters</text><text x="18" y="229" font-size="12" fill="#425563" font-weight="400" text-anchor="start">All accounts · GBP</text><rect x="134" y="826" width="122" height="5" rx="3" fill="#231F20" stroke="#231F20"/><g filter="url(#shadow)"><rect x="16" y="246" width="358" height="123" rx="16" fill="white" stroke="#E5E7EB"/></g><text x="32" y="275" font-size="11" fill="#425563" font-weight="600" text-anchor="start">NET CASH FLOW</text><text x="32" y="316" font-size="34" fill="#009639" font-weight="700" text-anchor="start">+£1,100.00</text><text x="32" y="344" font-size="13" fill="#425563" font-weight="400" text-anchor="start">Income minus expenses in September</text><g filter="url(#shadow)"><rect x="16" y="385" width="358" height="269" rx="16" fill="white" stroke="#E5E7EB"/></g><text x="32" y="415" font-size="18" fill="#231F20" font-weight="600" text-anchor="start">Income and expenses</text><text x="342" y="414" font-size="12" fill="#005EB8" font-weight="600" text-anchor="end">6 months</text><path d="M36 589H350" stroke="#E5E7EB"/><text x="36" y="582" font-size="10" fill="#425563" font-weight="400" text-anchor="start">£0</text><path d="M36 527H350" stroke="#E5E7EB"/><text x="36" y="520" font-size="10" fill="#425563" font-weight="400" text-anchor="start">£2k</text><path d="M36 465H350" stroke="#E5E7EB"/><text x="36" y="458" font-size="10" fill="#425563" font-weight="400" text-anchor="start">£4k</text><rect x="57" y="484" width="12" height="105" rx="4" fill="#009639" stroke="#009639"/><rect x="72" y="509" width="12" height="80" rx="4" fill="#DA291C" stroke="#DA291C"/><text x="70" y="612" font-size="11" fill="#425563" font-weight="400" text-anchor="middle">Apr</text><rect x="104" y="475" width="12" height="114" rx="4" fill="#009639" stroke="#009639"/><rect x="119" y="499" width="12" height="90" rx="4" fill="#DA291C" stroke="#DA291C"/><text x="117" y="612" font-size="11" fill="#425563" font-weight="400" text-anchor="middle">May</text><rect x="151" y="479" width="12" height="110" rx="4" fill="#009639" stroke="#009639"/><rect x="166" y="513" width="12" height="76" rx="4" fill="#DA291C" stroke="#DA291C"/><text x="164" y="612" font-size="11" fill="#425563" font-weight="400" text-anchor="middle">Jun</text><rect x="198" y="469" width="12" height="120" rx="4" fill="#009639" stroke="#009639"/><rect x="213" y="492" width="12" height="97" rx="4" fill="#DA291C" stroke="#DA291C"/><text x="211" y="612" font-size="11" fill="#425563" font-weight="400" text-anchor="middle">Jul</text><rect x="245" y="477" width="12" height="112" rx="4" fill="#009639" stroke="#009639"/><rect x="260" y="502" width="12" height="87" rx="4" fill="#DA291C" stroke="#DA291C"/><text x="258" y="612" font-size="11" fill="#425563" font-weight="400" text-anchor="middle">Aug</text><rect x="292" y="480.5" width="12" height="108.5" rx="4" fill="#009639" stroke="#009639"/><rect x="307" y="514.6" width="12" height="74.4" rx="4" fill="#DA291C" stroke="#DA291C"/><text x="305" y="612" font-size="11" fill="#425563" font-weight="400" text-anchor="middle">Sep</text><rect x="36" y="634" width="7" height="7" rx="3" fill="#009639" stroke="#009639"/><text x="50" y="641" font-size="11" fill="#425563" font-weight="400" text-anchor="start">Income</text><rect x="125" y="634" width="7" height="7" rx="3" fill="#DA291C" stroke="#DA291C"/><text x="139" y="641" font-size="11" fill="#425563" font-weight="400" text-anchor="start">Expenses</text><g filter="url(#shadow)"><rect x="16" y="670" width="358" height="135" rx="16" fill="white" stroke="#E5E7EB"/></g><text x="32" y="701" font-size="18" fill="#231F20" font-weight="600" text-anchor="start">September breakdown</text><text x="32" y="736" font-size="14" fill="#231F20" font-weight="400" text-anchor="start">Income</text><text x="339" y="736" font-size="16" fill="#009639" font-weight="600" text-anchor="end">+£3,500.00</text><path d="M32 748H358" stroke="#E5E7EB"/><text x="32" y="779" font-size="14" fill="#231F20" font-weight="400" text-anchor="start">Expenses</text><text x="339" y="779" font-size="16" fill="#DA291C" font-weight="600" text-anchor="end">−£2,400.00</text><path d="M350 770l5 5-5 5" fill="none" stroke="#425563" stroke-width="1.5"/></g><text x="900" y="112" font-size="18" fill="#005EB8" font-weight="600" text-anchor="start">03  Monthly summary</text><g transform="translate(900,132)"><rect x="0" y="0" width="390" height="844" rx="28" fill="#F7FAFC" stroke="#E5E7EB"/><text x="24" y="29" font-size="14" fill="#231F20" font-weight="600" text-anchor="start">9:41</text><text x="366" y="29" font-size="12" fill="#231F20" font-weight="500" text-anchor="end">▮▮▮  ▰</text><path d="M28 61l-6 6 6 6" stroke="#005EB8" stroke-width="1.5" fill="none"/><text x="38" y="72" font-size="14" fill="#005EB8" font-weight="500" text-anchor="start">Dashboard</text><text x="16" y="116" font-size="32" fill="#231F20" font-weight="700" text-anchor="start">Reports</text><text x="16" y="142" font-size="14" fill="#425563" font-weight="400" text-anchor="start">Your month at a glance</text><rect x="16" y="160" width="244" height="44" rx="16" fill="white" stroke="#E5E7EB"/><text x="36" y="187" font-size="16" fill="#231F20" font-weight="600" text-anchor="start">September 2026</text><text x="238" y="187" font-size="18" fill="#005EB8" font-weight="400" text-anchor="start">⌄</text><rect x="268" y="160" width="106" height="44" rx="16" fill="white" stroke="#E5E7EB"/><text x="321" y="187" font-size="14" fill="#005EB8" font-weight="600" text-anchor="middle">Filters</text><text x="18" y="229" font-size="12" fill="#425563" font-weight="400" text-anchor="start">All accounts · GBP</text><rect x="134" y="826" width="122" height="5" rx="3" fill="#231F20" stroke="#231F20"/><g filter="url(#shadow)"><rect x="16" y="246" width="358" height="127" rx="16" fill="white" stroke="#E5E7EB"/></g><text x="32" y="275" font-size="11" fill="#425563" font-weight="600" text-anchor="start">MONEY LEFT OVER</text><text x="32" y="316" font-size="34" fill="#009639" font-weight="700" text-anchor="start">+£1,100.00</text><text x="32" y="345" font-size="13" fill="#425563" font-weight="400" text-anchor="start">31% of your income retained</text><rect x="16" y="389" width="171" height="97" rx="16" fill="white" stroke="#E5E7EB"/><rect x="203" y="389" width="171" height="97" rx="16" fill="white" stroke="#E5E7EB"/><text x="32" y="419" font-size="14" fill="#425563" font-weight="400" text-anchor="start">Income</text><text x="32" y="457" font-size="21" fill="#009639" font-weight="700" text-anchor="start">+£3,500.00</text><text x="219" y="419" font-size="14" fill="#425563" font-weight="400" text-anchor="start">Expenses</text><text x="219" y="457" font-size="21" fill="#DA291C" font-weight="700" text-anchor="start">−£2,400.00</text><g filter="url(#shadow)"><rect x="16" y="502" width="358" height="127" rx="16" fill="white" stroke="#E5E7EB"/></g><text x="32" y="532" font-size="14" fill="#425563" font-weight="400" text-anchor="start">Largest expense category</text><text x="32" y="565" font-size="22" fill="#231F20" font-weight="600" text-anchor="start">Housing</text><text x="32" y="593" font-size="17" fill="#DA291C" font-weight="600" text-anchor="start">−£1,100.00</text><text x="151" y="592" font-size="12" fill="#425563" font-weight="400" text-anchor="start">46% of spending</text><path d="M349 563l5 5-5 5" fill="none" stroke="#425563" stroke-width="1.5"/><text x="16" y="666" font-size="20" fill="#231F20" font-weight="600" text-anchor="start">Explore your reports</text><g filter="url(#shadow)"><rect x="16" y="686" width="358" height="118" rx="16" fill="white" stroke="#E5E7EB"/></g><text x="32" y="720" font-size="16" fill="#231F20" font-weight="600" text-anchor="start">Spending breakdown</text><text x="32" y="741" font-size="12" fill="#425563" font-weight="400" text-anchor="start">Compare categories for this month</text><path d="M349 718l5 5-5 5" fill="none" stroke="#425563" stroke-width="1.5"/><path d="M32 753H358" stroke="#E5E7EB"/><text x="32" y="778" font-size="16" fill="#231F20" font-weight="600" text-anchor="start">Cash flow over time</text><path d="M349 770l5 5-5 5" fill="none" stroke="#425563" stroke-width="1.5"/></g></g></svg>